<svg width="74" height="64" viewBox="0 0 74 64" fill="none" xmlns="http://www.w3.org/2000/svg">
<g style="mix-blend-mode:overlay">
<path d="M73.9487 0V11.2165C70.4298 11.803 67.5707 13.2692 65.3713 15.6151C63.172 17.9611 61.4859 20.8935 60.3129 24.4124C59.2866 27.9313 58.7734 31.7434 58.7734 35.8488H72.4091V64H44.4779V38.268C44.4779 29.6174 45.8708 22.7262 48.6566 17.5945C51.4424 12.3162 55.0346 8.28408 59.4332 5.49829C63.9784 2.71249 68.8169 0.879731 73.9487 0ZM29.5225 0V11.2165C26.0036 11.803 23.1445 13.2692 20.9452 15.6151C18.7459 17.9611 17.0598 20.8935 15.8868 24.4124C14.8605 27.9313 14.3473 31.7434 14.3473 35.8488H27.983V64H0.0517578V38.268C0.0517578 29.6174 1.44466 22.7262 4.23045 17.5945C7.01625 12.3162 10.6085 8.28408 15.0071 5.49829C19.5523 2.71249 24.3908 0.879731 29.5225 0Z" fill="white"/>
</g>
<g style="mix-blend-mode:overlay">
<path d="M73.9487 0V11.2165C70.4298 11.803 67.5707 13.2692 65.3713 15.6151C63.172 17.9611 61.4859 20.8935 60.3129 24.4124C59.2866 27.9313 58.7734 31.7434 58.7734 35.8488H72.4091V64H44.4779V38.268C44.4779 29.6174 45.8708 22.7262 48.6566 17.5945C51.4424 12.3162 55.0346 8.28408 59.4332 5.49829C63.9784 2.71249 68.8169 0.879731 73.9487 0ZM29.5225 0V11.2165C26.0036 11.803 23.1445 13.2692 20.9452 15.6151C18.7459 17.9611 17.0598 20.8935 15.8868 24.4124C14.8605 27.9313 14.3473 31.7434 14.3473 35.8488H27.983V64H0.0517578V38.268C0.0517578 29.6174 1.44466 22.7262 4.23045 17.5945C7.01625 12.3162 10.6085 8.28408 15.0071 5.49829C19.5523 2.71249 24.3908 0.879731 29.5225 0Z" fill="white"/>
</g>
</svg>
